<?xml version="1.0" encoding="UTF-8"?>
<svg width="25px" height="30" viewBox="0 0 25 59" version="1.1" xmlns="http://www.w3.org/2000/svg" xmlns:xlink="http://www.w3.org/1999/xlink">
    <title>8140879_billing_discount_coupon_offer_tag_icon (1)</title>
    <g id="final" stroke="none" stroke-width="1" fill="none" fill-rule="evenodd">
        <g id="summary_after_my_packages_ons" transform="translate(-32.000000, -1475.000000)" fill="#E53C32" fill-rule="nonzero">
            <g id="8140879_billing_discount_coupon_offer_tag_icon-(1)" transform="translate(32.000000, 1515.000000)">
                <path d="M14.515625,-28.5076923 C13.6526801,-28.5076923 12.953125,-27.8188996 12.953125,-26.9692308 C12.953125,-26.1195619 13.6526801,-25.4307692 14.515625,-25.4307692 C15.3785699,-25.4307692 16.078125,-26.1195619 16.078125,-26.9692308 C16.078125,-27.8188996 15.3785699,-28.5076923 14.515625,-28.5076923 Z M14.515625,-26.3846154 C14.3513187,-26.3804658 14.1922772,-26.4418433 14.0745952,-26.554818 C13.9569132,-26.6677927 13.890571,-26.8227837 13.890625,-26.9846154 C13.851689,-27.2248005 13.9600841,-27.465031 14.1672036,-27.5975826 C14.374323,-27.7301342 14.641302,-27.7301342 14.8484214,-27.5975826 C15.0555409,-27.465031 15.163936,-27.2248005 15.125,-26.9846154 C15.125,-26.6532445 14.8521735,-26.3846154 14.515625,-26.3846154 Z" id="Shape"></path>
                <path d="M11.921875,-30.0615385 C11.921875,-30.9112073 11.2223199,-31.6 10.359375,-31.6 C9.49643008,-31.6 8.796875,-30.9112073 8.796875,-30.0615385 C8.796875,-29.2118696 9.49643008,-28.5230769 10.359375,-28.5230769 C11.2223199,-28.5230769 11.921875,-29.2118696 11.921875,-30.0615385 Z M9.765625,-30.0615385 C9.76141062,-30.2233169 9.82374711,-30.3799117 9.93848706,-30.4957832 C10.053227,-30.6116547 10.2106397,-30.6769763 10.375,-30.6769231 C10.618938,-30.71526 10.8629221,-30.6085326 10.9975448,-30.4045996 C11.1321676,-30.2006666 11.1321676,-29.937795 10.9975448,-29.733862 C10.8629221,-29.529929 10.618938,-29.4232015 10.375,-29.4615385 C10.0384515,-29.4615385 9.765625,-29.7301676 9.765625,-30.0615385 Z" id="Shape"></path>
                <path d="M14.71875,-31.5076923 C14.6209005,-31.5853804 14.4946726,-31.6195576 14.3702376,-31.6020546 C14.2458026,-31.5845517 14.134343,-31.5169416 14.0625,-31.4153846 L10.109375,-26.2 C10.0364078,-26.1001816 10.0069195,-25.9758172 10.0274541,-25.8545053 C10.0479886,-25.7331934 10.1168476,-25.624968 10.21875,-25.5538462 C10.2939359,-25.4940214 10.3877074,-25.4614348 10.484375,-25.4615385 C10.6526391,-25.4271614 10.8265187,-25.4861974 10.9375,-25.6153846 L14.90625,-30.8307692 C14.9833255,-30.9423563 15.0069401,-31.0815675 14.9708782,-31.2117603 C14.9348163,-31.3419531 14.8426906,-31.4500844 14.71875,-31.5076923 Z" id="Path"></path>
                <path d="M21.25,-39.6307692 L3.75,-39.6307692 C1.72207943,-39.6307692 0.078125,-38.0121064 0.078125,-36.0153846 L0.078125,-35.8615385 C0.0866847949,-33.8683181 1.72563562,-32.254582 3.75,-32.2461538 C3.75,-32.2461538 3.75,-32.2461538 3.84375,-32.2461538 L3.84375,-23.6153846 C3.82690967,-22.927464 4.09272644,-22.261961 4.58098613,-21.7696287 C5.06924583,-21.2772964 5.73862771,-20.9998002 6.4375,-20.9999999 L18.578125,-20.9999999 C20.0045337,-20.9999999 21.1632822,-22.134023 21.171875,-23.5384615 L21.171875,-32.2923077 C21.171875,-32.2923077 21.171875,-32.2923077 21.171875,-32.2923077 C22.1632354,-32.2549275 23.1280742,-32.6124404 23.848437,-33.2840854 C24.5687998,-33.9557304 24.9839116,-34.8848427 25.0000001,-35.8615385 L25.0000001,-36.0153846 C25.0000001,-36.987722 24.6026605,-37.9191617 23.8970599,-38.599433 C23.1914592,-39.2797044 22.2373067,-39.6514573 21.25,-39.6307692 Z M18.578125,-21.9846154 L6.4375,-21.9846154 C5.52631265,-21.9929617 4.78972671,-22.7182155 4.78125,-23.6153846 L4.78125,-35.2923077 L20.3125,-35.2923077 L20.3125,-23.6153846 C20.3085944,-23.1705986 20.1220466,-22.7462996 19.7953357,-22.4391053 C19.4686247,-22.131911 19.0295612,-21.9679706 18.578125,-21.9846154 L18.578125,-21.9846154 Z M23.984375,-35.8307692 C23.9589217,-34.3593737 22.7445799,-33.1773788 21.25,-33.1692308 L21.25,-33.1692308 L21.25,-35.2923077 L22.21875,-35.2923077 C22.4776335,-35.2923077 22.6875,-35.4989455 22.6875,-35.7538462 C22.6919119,-35.8775344 22.6439441,-35.9974694 22.555062,-36.0849841 C22.4661798,-36.1724988 22.3443708,-36.2197286 22.21875,-36.2153846 L2.875,-36.2153846 C2.61611652,-36.2153846 2.40625,-36.0087468 2.40625,-35.7538462 C2.41436548,-35.5023297 2.61955356,-35.3002983 2.875,-35.2923077 L3.84375,-35.2923077 L3.84375,-33.1384615 L3.75,-33.1384615 C3.02065098,-33.1425302 2.32281706,-33.4317136 1.81001973,-33.9423921 C1.29722241,-34.4530706 1.0114692,-35.1434103 1.0155803,-35.8615385 L1.0155803,-36.0153846 C1.0155803,-36.729429 1.30371011,-37.414228 1.8165049,-37.9191336 C2.32929968,-38.4240393 3.02479866,-38.7076923 3.75,-38.7076923 L21.25,-38.7076923 C21.9752013,-38.7076923 22.6707003,-38.4240393 23.1834951,-37.9191336 C23.6962899,-37.414228 23.984375,-36.729429 23.984375,-36.0153846 L23.984375,-35.8307692 Z" id="Shape"></path>
            </g>
        </g>
    </g>
</svg>