<?xml version="1.0" encoding="UTF-8"?>
<svg width="41px" height="41px" viewBox="0 0 41 41" version="1.1" xmlns="http://www.w3.org/2000/svg" xmlns:xlink="http://www.w3.org/1999/xlink">
    <title>Group</title>
    <g id="final" stroke="none" stroke-width="1" fill="none" fill-rule="evenodd">
        <g id="Home_screen" transform="translate(-331.000000, -534.000000)" fill-rule="nonzero">
            <g id="Group" transform="translate(331.000000, 534.000000)">
                <path d="M9.307,0 C8.405,0.0409999199 7.216,0.12299976 6.683,0.24599952 C5.863,0.409999199 5.084,0.655998719 4.469,0.983998078 C3.69,1.35299736 3.034,1.8449964 2.46,2.41899528 C1.845,3.03399407 1.353,3.68999279 0.984,4.46899127 C0.656,5.08399007 0.41,5.86298855 0.246,6.68298695 C0.123,7.21598591 0.041,8.40498358 0.041,9.30698182 C0,9.6759811 0,10.1679801 0,10.4139797 L0,30.5860203 L0,31.6930182 C0.041,32.5950164 0.123,33.7840141 0.246,34.3170131 C0.41,35.1370115 0.656,35.9160099 0.984,36.5310087 C1.353,37.3100072 1.845,37.9660059 2.419,38.5400048 C3.034,39.1550036 3.69,39.6470026 4.469,40.0160019 C5.084,40.3440013 5.863,40.5900008 6.683,40.7540005 C7.216,40.8770002 8.405,40.9590001 9.307,40.9590001 C9.676,41 10.168,41 10.414,41 L30.586,41 L31.693,41 C32.595,40.9590001 33.784,40.8770002 34.317,40.7540005 C35.137,40.5900008 35.916,40.3440013 36.531,40.0160019 C37.31,39.6470026 37.966,39.1550036 38.54,38.5810047 C39.155,37.9660059 39.647,37.3100072 40.016,36.5310087 C40.344,35.9160099 40.59,35.1370115 40.754,34.3170131 C40.877,33.7840141 40.959,32.5950164 40.959,31.6930182 C41,31.3240189 41,30.8320199 41,30.5860203 L41,9.30698182 C40.959,8.40498358 40.877,7.21598591 40.754,6.68298695 C40.59,5.86298855 40.344,5.08399007 40.016,4.46899127 C39.647,3.68999279 39.155,3.03399407 38.581,2.4599952 C37.966,1.8449964 37.31,1.35299736 36.531,0.983998078 C35.916,0.655998719 35.137,0.409999199 34.317,0.24599952 C33.784,0.12299976 32.595,0.0409999199 31.693,0.0409999199 C31.324,0 30.832,0 30.586,0 L9.307,0 Z" id="Path-Copy" fill="#E63C33"></path>
                <g id="2849835_phone_telephone_cell_call_communication_icon-(1)" transform="translate(5.000000, 6.000000)" fill="#FFFFFF">
                    <path d="M21.9401985,29.9300248 C20.7757022,29.921387 19.6163032,29.7752128 18.4861042,29.4945409 C14.5831266,28.5528536 10.5640199,26.1640199 7.17096774,22.7679901 C3.77791563,19.3719603 1.38610422,15.3521092 0.444416873,11.4528536 C-0.547146402,7.35111663 0.160049628,3.84193548 2.43349876,1.56848635 L3.08263027,0.919354839 C4.30892756,-0.3044881 6.29454638,-0.3044881 7.52084367,0.919354839 L11.2511166,4.64888337 C12.4757797,5.87484133 12.4757797,7.86113882 11.2511166,9.08709677 L9.04764268,11.2898263 C10.1039702,13.1434243 11.5406948,14.9985112 13.2387097,16.6965261 C14.9367246,18.3945409 16.7933002,19.8320099 18.6461538,20.8883375 L20.8488834,18.6848635 C21.4373524,18.0961792 22.2356169,17.7654417 23.0679901,17.7654417 C23.9003632,17.7654417 24.6986277,18.0961792 25.2870968,18.6848635 L29.0166253,22.4143921 C30.2416137,23.6399247 30.2416137,25.6263284 29.0166253,26.851861 L28.3667494,27.5009926 C26.7640199,29.1066998 24.5456576,29.9300248 21.9401985,29.9300248 Z M5.30173697,2.23323961 C5.06163179,2.23205945 4.83115598,2.32757679 4.66228288,2.49826303 L4.01240695,3.14739454 C2.30992556,4.84987593 1.81265509,7.61389578 2.61215881,10.9258065 C3.45856079,14.4342432 5.63746898,18.0796526 8.74689826,21.1883375 C11.8563275,24.2970223 15.5009926,26.4736973 19.0101737,27.3230769 C22.3228288,28.1225806 25.0853598,27.6253102 26.7878412,25.9228288 L27.4369727,25.2736973 C27.7901404,24.9202487 27.7901404,24.3474932 27.4369727,23.9940447 L23.7081886,20.2645161 C23.35474,19.9113484 22.7819845,19.9113484 22.428536,20.2645161 L19.6362283,23.0568238 C19.2924195,23.4008206 18.7654993,23.4827191 18.3334988,23.2593052 C16.0444169,22.0756824 13.7367246,20.3523573 11.6598015,18.2754342 C9.58287841,16.1985112 7.86327543,13.8923077 6.67667494,11.6032258 C6.45307138,11.1713821 6.53466566,10.6444818 6.87841191,10.3004963 L9.67146402,7.50818859 C10.0246317,7.15474003 10.0246317,6.58198454 9.67146402,6.22853598 L5.94193548,2.49826303 C5.77254832,2.32788817 5.54198467,2.23244554 5.30173697,2.23323961 Z" id="Shape"></path>
                    <path d="M23.1327543,16.5059553 C22.5160592,16.5059553 22.016129,16.0060252 22.016129,15.38933 C22.011617,11.3106138 18.7065073,8.00517114 14.6277916,8.00024814 C14.0110964,8.00024814 13.5111663,7.50031796 13.5111663,6.88362283 C13.5111663,6.2669277 14.0110964,5.76699752 14.6277916,5.76699752 C19.9332506,5.76699752 24.2493797,10.0846154 24.2493797,15.38933 C24.2493797,15.6854775 24.1317355,15.9694955 23.9223277,16.1789034 C23.7129198,16.3883112 23.4289018,16.5059553 23.1327543,16.5059553 Z" id="Path"></path>
                    <path d="M27.8523573,16.5059553 C27.2356622,16.5059553 26.735732,16.0060252 26.735732,15.38933 C26.735732,8.71265509 21.3014888,3.28064516 14.6277916,3.28064516 C14.0110964,3.28064516 13.5111663,2.78071498 13.5111663,2.16401985 C13.5111663,1.54732472 14.0110964,1.04739454 14.6277916,1.04739454 C22.535732,1.04739454 28.9689826,7.48138958 28.9689826,15.38933 C28.9689826,16.0060252 28.4690525,16.5059553 27.8523573,16.5059553 Z" id="Path"></path>
                </g>
            </g>
        </g>
    </g>
</svg>