<?xml version="1.0" encoding="UTF-8"?>
<svg width="25px" height="19px" viewBox="0 0 25 19" version="1.1" xmlns="http://www.w3.org/2000/svg" xmlns:xlink="http://www.w3.org/1999/xlink">
    <title>Group 2</title>
    <g id="final" stroke="none" stroke-width="1" fill="none" fill-rule="evenodd">
        <g id="summary" transform="translate(-32.000000, -1487.000000)" fill="#E53C32" fill-rule="nonzero">
            <g id="8140879_billing_discount_coupon_offer_tag_icon-(1)" transform="translate(32.078125, 1487.368411)">
                <g id="Group-2" transform="translate(0.000000, -0.000000)">
                    <path d="M14.4375,11.1238964 C13.5745551,11.1238964 12.875,11.8126891 12.875,12.662358 C12.875,13.5120268 13.5745551,14.2008195 14.4375,14.2008195 C15.3004449,14.2008195 16,13.5120268 16,12.662358 C16,11.8126891 15.3004449,11.1238964 14.4375,11.1238964 Z M14.4375,13.2469733 C14.2731937,13.2511229 14.1141522,13.1897454 13.9964702,13.0767707 C13.8787882,12.963796 13.812446,12.808805 13.8125,12.6469733 C13.773564,12.4067883 13.8819591,12.1665577 14.0890786,12.0340061 C14.296198,11.9014545 14.563177,11.9014545 14.7702964,12.0340061 C14.9774159,12.1665577 15.085811,12.4067883 15.046875,12.6469733 C15.046875,12.9783442 14.7740485,13.2469733 14.4375,13.2469733 Z" id="Shape"></path>
                    <path d="M11.84375,9.57005026 C11.84375,8.72038142 11.1441949,8.03158872 10.28125,8.03158872 C9.41830508,8.03158872 8.71875,8.72038142 8.71875,9.57005026 C8.71875,10.4197191 9.41830508,11.1085118 10.28125,11.1085118 C11.1441949,11.1085118 11.84375,10.4197191 11.84375,9.57005026 Z M9.6875,9.57005026 C9.68328562,9.40827179 9.74562211,9.25167704 9.86036206,9.13580553 C9.97510201,9.01993403 10.1325147,8.95461244 10.296875,8.95466565 C10.540813,8.9163287 10.7847971,9.02305615 10.9194198,9.22698916 C11.0540426,9.43092216 11.0540426,9.69379375 10.9194198,9.89772675 C10.7847971,10.1016598 10.540813,10.2083872 10.296875,10.1700503 C9.96032648,10.1700503 9.6875,9.90142111 9.6875,9.57005026 Z" id="Shape"></path>
                    <path d="M14.640625,8.12389642 C14.5427755,8.04620829 14.4165476,8.01203115 14.2921126,8.02953409 C14.1676776,8.04703703 14.056218,8.11464714 13.984375,8.21620411 L10.03125,13.4315887 C9.95828277,13.5314072 9.92879448,13.6557715 9.94932905,13.7770834 C9.96986362,13.8983954 10.0387226,14.0066207 10.140625,14.0777426 C10.2158109,14.1375673 10.3095824,14.170154 10.40625,14.1700503 C10.5745141,14.2044273 10.7483937,14.1453913 10.859375,14.0162041 L14.828125,8.80081949 C14.9052005,8.6892324 14.9288151,8.55002125 14.8927532,8.41982842 C14.8566913,8.28963559 14.7645656,8.18150436 14.640625,8.12389642 Z" id="Path"></path>
                    <path d="M21.171875,0.00081949258 L3.671875,0.00081949258 C1.64395443,0.00081949258 0,1.61948232 0,3.61620411 L0,3.77005026 C0.00855979488,5.76327058 1.64751062,7.37700677 3.671875,7.38543488 C3.671875,7.38543488 3.671875,7.38543488 3.765625,7.38543488 L3.765625,16.0162041 C3.74878467,16.7041247 4.01460144,17.3696278 4.50286113,17.8619601 C4.99112083,18.3542924 5.66050271,18.6317885 6.359375,18.6315888 L18.5,18.6315888 C19.9264087,18.6315888 21.0851572,17.4975657 21.09375,16.0931272 L21.09375,7.33928103 C21.09375,7.33928103 21.09375,7.33928103 21.09375,7.33928103 C22.0851104,7.37666125 23.0499492,7.01914829 23.770312,6.34750329 C24.4906748,5.67585828 24.9057866,4.74674602 24.9218751,3.77005026 L24.9218751,3.61620411 C24.9218751,2.64386668 24.5245355,1.71242707 23.8189349,1.03215568 C23.1133342,0.351884292 22.1591817,-0.0198685632 21.171875,0.00081949258 Z M18.5,17.6469733 L6.359375,17.6469733 C5.44818765,17.638627 4.71160171,16.9133732 4.703125,16.0162041 L4.703125,4.33928103 L20.234375,4.33928103 L20.234375,16.0162041 C20.2304694,16.4609901 20.0439216,16.8852891 19.7172107,17.1924834 C19.3904997,17.4996778 18.9514362,17.6636181 18.5,17.6469733 L18.5,17.6469733 Z M23.90625,3.80081949 C23.8807967,5.27221502 22.6664549,6.45420996 21.171875,6.46235795 L21.171875,6.46235795 L21.171875,4.33928103 L22.140625,4.33928103 C22.3995085,4.33928103 22.609375,4.13264322 22.609375,3.87774257 C22.6137869,3.75405436 22.5658191,3.63411934 22.476937,3.54660464 C22.3880548,3.45908995 22.2662458,3.41186011 22.140625,3.41620411 L2.796875,3.41620411 C2.53799152,3.41620411 2.328125,3.62284192 2.328125,3.87774257 C2.33624048,4.12925906 2.54142856,4.3312904 2.796875,4.33928103 L3.765625,4.33928103 L3.765625,6.49312718 L3.671875,6.49312718 C2.94252598,6.4890585 2.24469206,6.19987514 1.73189473,5.68919663 C1.21909741,5.17851812 0.933344199,4.4881784 0.937455297,3.77005026 L0.937455297,3.61620411 C0.937455297,2.90215971 1.22558511,2.21736072 1.7383799,1.71245508 C2.25117468,1.20754945 2.94667366,0.923896416 3.671875,0.923896416 L21.171875,0.923896416 C21.8970763,0.923896416 22.5925753,1.20754945 23.1053701,1.71245508 C23.6181649,2.21736072 23.90625,2.90215971 23.90625,3.61620411 L23.90625,3.80081949 Z" id="Shape"></path>
                </g>
            </g>
        </g>
    </g>
</svg>