<?xml version="1.0" encoding="UTF-8"?>
<svg width="18px" height="22px" viewBox="0 0 18 22" version="1.1" xmlns="http://www.w3.org/2000/svg" xmlns:xlink="http://www.w3.org/1999/xlink">
    <title>2850903_document_file_menu_page_paper_icon</title>
    <g id="final" stroke="none" stroke-width="1" fill="none" fill-rule="evenodd">
        <g id="Home_screen" transform="translate(-132.000000, -1773.000000)" fill="#000000" fill-rule="nonzero">
            <g id="2850903_document_file_menu_page_paper_icon" transform="translate(132.000000, 1773.000000)">
                <path d="M15.2667273,21.9999999 L2.78181818,21.9999999 C1.27302094,21.9981907 0.0503487998,20.7714632 0.0485454545,19.2576617 L0.0485454545,2.74233831 C0.0503487998,1.22853676 1.27302094,0.00180932649 2.78181818,-8.43774632e-08 L10.9690909,-8.43774632e-08 C11.1861238,-8.43774632e-08 11.3943036,0.0863236018 11.5478182,0.240248756 L17.7605455,6.47248756 C17.9139618,6.62651135 18.0000001,6.83538155 18.0000001,7.05313433 L18.0000001,19.2571144 C17.9984972,20.7711297 16.7757372,21.9981901 15.2667273,21.9999999 Z M2.78181818,1.64179104 C2.17626128,1.64239439 1.68551044,2.13477293 1.68490909,2.74233831 L1.68490909,19.2576617 C1.68551044,19.8652271 2.17626128,20.3576056 2.78181818,20.358209 L15.2667273,20.358209 C15.8722842,20.3576056 16.363035,19.8652271 16.3636364,19.2576617 L16.3636364,7.39298507 L10.6314545,1.64179104 L2.78181818,1.64179104 Z" id="Shape"></path>
                <path d="M17.1818182,7.87402985 L12.8852727,7.87402985 C11.3764755,7.87222052 10.1538033,6.64549309 10.152,5.13169154 L10.152,0.820895522 C10.152,0.367527444 10.5183125,0 10.9701818,0 C11.4220512,0 11.7883636,0.367527444 11.7883636,0.820895522 L11.7883636,5.13169154 C11.788965,5.73925692 12.2797158,6.23163546 12.8852727,6.23223881 L17.1818182,6.23223881 C17.6336875,6.23223881 18,6.59976625 18,7.05313433 C18,7.50650241 17.6336875,7.87402985 17.1818182,7.87402985 Z" id="Path"></path>
                <path d="M13.3887273,10.8358209 L4.66145455,10.8358209 C4.20958522,10.8358209 3.84327276,10.4682934 3.84327276,10.0149254 C3.84327276,9.56155731 4.20958522,9.19402985 4.66145455,9.19402985 L13.3887273,9.19402985 C13.8405966,9.19402985 14.2069091,9.56155729 14.2069091,10.0149254 C14.2069091,10.4682935 13.8405966,10.8358209 13.3887273,10.8358209 L13.3887273,10.8358209 Z" id="Path"></path>
                <path d="M13.3887273,14.2288557 L4.66145455,14.2288557 C4.2095852,14.2288557 3.84327273,13.8613283 3.84327273,13.4079602 C3.84327273,12.9545921 4.2095852,12.5870647 4.66145455,12.5870647 L13.3887273,12.5870647 C13.8405966,12.5870647 14.2069091,12.9545921 14.2069091,13.4079602 C14.2069091,13.8613283 13.8405966,14.2288557 13.3887273,14.2288557 Z" id="Path"></path>
                <path d="M13.3887273,17.6218905 L4.66145455,17.6218905 C4.2095852,17.6218905 3.84327273,17.2543631 3.84327273,16.800995 C3.84327273,16.3476269 4.2095852,15.9800995 4.66145455,15.9800995 L13.3887273,15.9800995 C13.8405966,15.9800995 14.2069091,16.3476269 14.2069091,16.800995 C14.2069091,17.2543631 13.8405966,17.6218905 13.3887273,17.6218905 Z" id="Path"></path>
            </g>
        </g>
    </g>
</svg>