<?xml version="1.0" encoding="UTF-8"?>
<svg width="26px" height="22px" viewBox="0 0 26 22" version="1.1" xmlns="http://www.w3.org/2000/svg" xmlns:xlink="http://www.w3.org/1999/xlink">
    <title>3643749_edit_pen_pencil_write_writing_icon (1)</title>
    <g id="final" stroke="none" stroke-width="1" fill="none" fill-rule="evenodd">
        <g id="main_profile" transform="translate(-322.000000, -59.000000)" fill="#E63C33" fill-rule="nonzero">
            <g id="3643749_edit_pen_pencil_write_writing_icon-(1)" transform="translate(322.000000, 59.000000)">
                <path d="M1.67741935,22.0000156 C1.43803194,22.0014661 1.20943243,21.8996591 1.04919923,21.7202217 C0.888966033,21.5407842 0.812372166,21.3008197 0.838709677,21.0607692 L1.48451613,15.1376923 C1.50750547,14.9483827 1.59321476,14.7724609 1.72774194,14.6384615 L15.4490323,0.795384615 C15.9525089,0.286423829 16.6359741,0.000407121401 17.3487097,0.000407121401 C18.0614452,0.000407121401 18.7449105,0.286423829 19.2483871,0.795384615 L21.8567742,3.42692308 C22.3612573,3.93486845 22.6447578,4.62439994 22.6447578,5.34346154 C22.6447578,6.06252314 22.3612573,6.75205463 21.8567742,7.26 L8.14387097,21.0946154 C8.01105049,21.2303366 7.83667642,21.3168066 7.64903226,21.34 L1.77806452,21.9915385 L1.67741935,22.0000156 Z M3.1283871,15.6115385 L2.62516129,20.1976923 L7.17096774,19.69 L20.6741935,6.06692308 C20.8636962,5.87640118 20.970213,5.61759996 20.970213,5.34769231 C20.970213,5.07778465 20.8636962,4.81898344 20.6741935,4.62846154 L18.0574194,1.98846154 C17.8685736,1.79727695 17.6120492,1.68981468 17.3445161,1.68981468 C17.076983,1.68981468 16.8204587,1.79727695 16.6316129,1.98846154 L3.1283871,15.6115385 Z" id="Shape"></path>
                <path d="M19.2903226,9.48538462 C19.067391,9.48668495 18.853119,9.39838859 18.6948387,9.24 L13.4864516,3.96846154 C13.2737057,3.75382736 13.190619,3.44099124 13.2684894,3.14779551 C13.3463598,2.85459977 13.573357,2.62558784 13.8639733,2.54702628 C14.1545896,2.46846472 14.4646735,2.5522889 14.6774194,2.76692308 L19.9025806,8.03846154 C20.061359,8.19734097 20.1506696,8.41361439 20.1506696,8.63923077 C20.1506696,8.86484715 20.061359,9.08112057 19.9025806,9.24 C19.7402122,9.40262152 19.5190408,9.49126399 19.2903226,9.48538462 Z" id="Path"></path>
                <polygon id="Rectangle" transform="translate(10.819076, 11.933633) rotate(-45.000000) translate(-10.819076, -11.933633) " points="6.18521154 11.1116909 15.4603852 11.0707108 15.4529411 12.7555743 6.17776737 12.7965545"></polygon>
                <path d="M25.1612903,22 L11.7419355,22 C11.2787289,22 10.9032258,21.621164 10.9032258,21.1538462 C10.9032258,20.6865283 11.2787289,20.3076923 11.7419355,20.3076923 L25.1612903,20.3076923 C25.6244969,20.3076923 26,20.6865283 26,21.1538462 C26,21.621164 25.6244969,22 25.1612903,22 Z" id="Path"></path>
            </g>
        </g>
    </g>
</svg>