<?xml version="1.0" encoding="UTF-8"?>
<svg width="22px" height="22px" viewBox="0 0 22 22" version="1.1" xmlns="http://www.w3.org/2000/svg" xmlns:xlink="http://www.w3.org/1999/xlink">
    <title>Home</title>
    <g id="final" stroke="none" stroke-width="1" fill="none" fill-rule="evenodd" stroke-linecap="round" stroke-linejoin="round">
        <g id="Home_screen" transform="translate(-41.000000, -1773.000000)" stroke="#000000" stroke-width="2">
            <g id="BottomMenu" transform="translate(15.000000, 1754.000000)">
                <g id="Home" transform="translate(27.000000, 20.000000)">
                    <path d="M10,0 L9.34571429,0.541075619 L0,10.8900391 L0,18.559322 C0,19.3473794 0.64,19.9869622 1.42857143,19.9869622 L5.71428571,19.9869622 C6.50285714,19.9869622 7.14285714,19.3473794 7.14285714,18.559322 L7.14285714,12.8487614 C7.14285714,12.060704 7.78285714,11.4211213 8.57142857,11.4211213 L11.4285714,11.4211213 C12.2171429,11.4211213 12.8571429,12.060704 12.8571429,12.8487614 L12.8571429,18.559322 C12.8571429,19.3473794 13.4971429,19.9869622 14.2857143,19.9869622 L18.5714286,19.9869622 C19.36,19.9869622 20,19.3473794 20,18.559322 L20,10.8900391 L10.6542857,0.541075619 L10,0 Z" id="Stroke-1"></path>
                </g>
            </g>
        </g>
    </g>
</svg>