<?xml version="1.0" encoding="UTF-8"?>
<svg width="122px" height="234px" viewBox="0 0 122 234" version="1.1" xmlns="http://www.w3.org/2000/svg" xmlns:xlink="http://www.w3.org/1999/xlink">
    <title>Group</title>
    <g id="final" stroke="none" stroke-width="1" fill="none" fill-rule="evenodd" opacity="0.1351609">
        <g id="mobile_no" transform="translate(-124.000000, -593.000000)">
            <g id="Group" transform="translate(126.000000, 595.000000)">
                <path d="M58.8308933,231.317475 L58.8308933,192.170591 C58.8308933,192.170591 22.1705138,191.063462 22.1705138,145.636986 L78.3508458,145.636986 L78.3508458,231.317475 L58.8308933,231.317475 Z" id="Path" fill="#EAD3B5" fill-rule="nonzero"></path>
                <path d="M58.8308933,231.317475 L58.8308933,192.170591 C58.8308933,192.170591 22.1705138,191.063462 22.1705138,145.636986" id="Path" stroke="#000000" stroke-width="3.92749491"></path>
                <path d="M31.3783715,73.6228106 C30.227083,77.5375967 26.1120474,79.7811813 22.1866877,78.6329939 L5.332,73.1843585 C1.40811067,72.0361711 -0.841533597,67.9336864 0.309264822,64.0179226 L0.864079051,62.1282281 C2.01536759,58.213442 6.12893281,55.9698574 10.0542925,57.1180448 L26.9089802,62.5666802 C30.8328696,63.7148676 33.0839842,67.8188187 31.9326957,71.7331161 L31.3783715,73.6228106 Z" id="Path" stroke="#000000" stroke-width="3.92749491" fill="#EAD3B5" fill-rule="nonzero"></path>
                <g transform="translate(21.075099, 0.000000)">
                    <path d="M0.00294071146,11.6421996 C0.00294071146,5.21645621 5.22417391,0.0083095723 11.668253,0.0083095723 L66.5438893,0.0083095723 C72.9869881,0.0083095723 78.2096917,5.21694501 78.2096917,11.6421996 L78.2096917,146.519267 C78.2096917,152.946965 72.9869881,158.15609 66.5438893,158.15609 L11.6687431,158.15609 C5.22466403,158.15609 0.00294071146,152.947454 0.00294071146,146.519267 L0.00294071146,11.6421996 L0.00294071146,11.6421996 Z" id="Path" stroke="#000000" stroke-width="3.92749491" fill="#FFFFFF" fill-rule="nonzero"></path>
                    <rect id="Rectangle" fill="#DEDDDD" fill-rule="nonzero" x="5.40257708" y="29.3147047" width="67.4079684" height="110.313483"></rect>
                    <rect id="Rectangle" fill="#6FCACD" fill-rule="nonzero" x="5.40257708" y="18.106558" width="67.4079684" height="11.2081466"></rect>
                    <rect id="Rectangle" fill="#B2B3B3" fill-rule="nonzero" x="5.40257708" y="29.7174745" width="67.4079684" height="1.78118126"></rect>
                    <g>
                        <path d="M0.00294071146,11.6421996 C0.00294071146,5.21645621 5.22417391,0.0083095723 11.668253,0.0083095723 L66.5438893,0.0083095723 C72.9869881,0.0083095723 78.2096917,5.21694501 78.2096917,11.6421996 L78.2096917,146.519267 C78.2096917,152.946965 72.9869881,158.15609 66.5438893,158.15609 L11.6687431,158.15609 C5.22466403,158.15609 0.00294071146,152.947454 0.00294071146,146.519267 L0.00294071146,11.6421996 L0.00294071146,11.6421996 Z" id="Path" stroke="#000000" stroke-width="3.92749491"></path>
                        <rect id="Rectangle" stroke="#000000" stroke-width="2.61829735" x="5.40257708" y="18.106558" width="67.4079684" height="121.516741"></rect>
                        <path d="M40.3480316,5.340611 C40.3480316,6.02443992 39.7932174,6.57971487 39.1070514,6.57971487 C38.4189249,6.57971487 37.8636206,6.02492872 37.8636206,5.340611 C37.8636206,4.65678208 38.4189249,4.10052953 39.1070514,4.10052953 C39.7927273,4.10052953 40.3480316,4.65678208 40.3480316,5.340611 Z" id="Path" fill="#000000" fill-rule="nonzero"></path>
                        <path d="M45.6947352,10.4558859 C45.6947352,10.991609 45.2585296,11.4251731 44.7233202,11.4251731 L33.4898024,11.4251731 C32.9526324,11.4251731 32.5183874,10.991609 32.5183874,10.4558859 L32.5183874,10.4558859 C32.5183874,9.92016293 32.9531225,9.48562118 33.4898024,9.48562118 L44.7233202,9.48562118 C45.2590198,9.48562118 45.6947352,9.92016293 45.6947352,10.4558859 L45.6947352,10.4558859 Z" id="Path" fill="#000000" fill-rule="nonzero"></path>
                        <path d="M44.6154941,148.66167 C44.6154941,151.694664 42.147747,154.154297 39.1070514,154.154297 C36.0639051,154.154297 33.5961581,151.694664 33.5961581,148.66167 C33.5961581,145.624277 36.0639051,143.167088 39.1070514,143.167088 C42.147747,143.167088 44.6154941,145.624277 44.6154941,148.66167 Z" id="Path" stroke="#000000" stroke-width="1.57099796"></path>
                        <line x1="5.40257708" y1="29.3147047" x2="72.8105455" y2="29.3147047" id="Path" stroke="#000000" stroke-width="2.61829735"></line>
                    </g>
                </g>
                <path d="M117.342229,231.317475 L117.342229,119.784929 L104.379573,84.7815886 L71.4235099,84.7815886 C71.4235099,84.7815886 68.4597628,102.056212 88.4580711,102.056212 L95.8622925,123.731487 C95.8622925,123.731487 59.2617075,135.294012 71.2666719,178.874786 L71.2666719,231.317475 L117.342229,231.317475 L117.342229,231.317475 Z" id="Path" fill="#EAD3B5" fill-rule="nonzero"></path>
                <path d="M117.342229,231.317475 L117.342229,119.784929 L104.379573,84.7815886 L71.4235099,84.7815886 C71.4235099,84.7815886 68.4597628,102.056212 88.4580711,102.056212 L95.8622925,123.731487 C95.8622925,123.731487 59.2617075,135.294012 71.2666719,178.874786" id="Path" stroke="#000000" stroke-width="3.92749491"></path>
                <path d="M35.1973755,117.474379 C33.9054229,121.344196 29.710498,123.43723 25.8302292,122.148758 L12.7136759,117.792587 C8.83193676,116.504114 6.73471937,112.320489 8.02716206,108.450672 L8.65157312,106.581507 C9.94352569,102.71169 14.1369802,100.618656 18.0182292,101.907617 L31.1352727,106.264766 C35.0155415,107.553727 37.1142292,111.735397 35.8217866,115.60668 L35.1973755,117.474379 Z" id="Path" stroke="#000000" stroke-width="3.92749491" fill="#EAD3B5" fill-rule="nonzero"></path>
                <path d="M33.7588775,96.1329532 C32.4708458,100.003747 28.2783715,102.102159 24.3966324,100.818574 L12.6823083,96.9424033 C8.79958893,95.6588187 6.69698024,91.4781263 7.98403162,87.6068432 L8.60452174,85.7362118 C9.89255336,81.8649287 14.0860079,79.7670061 17.967747,81.0505906 L29.6806008,84.9272505 C33.5647905,86.210835 35.6673992,90.3915275 34.3803478,94.2628106 L33.7588775,96.1329532 Z" id="Path" stroke="#000000" stroke-width="3.92749491" fill="#EAD3B5" fill-rule="nonzero"></path>
                <path d="M33.9294387,139.811976 C32.3247905,143.56057 27.9735178,145.304114 24.2108775,143.706232 L13.5405059,139.162851 C9.77933597,137.564481 8.02961265,133.225418 9.63426087,129.471935 L10.4110988,127.661426 C12.0147668,123.907943 16.3670198,122.164399 20.1281897,123.767169 L30.7985613,128.305662 C34.5612016,129.906477 36.3109249,134.24554 34.703336,137.999022 L33.9294387,139.811976 Z" id="Path" stroke="#000000" stroke-width="3.92749491" fill="#EAD3B5" fill-rule="nonzero"></path>
            </g>
        </g>
    </g>
</svg>