<?xml version="1.0" encoding="UTF-8"?>
<svg width="20px" height="20px" viewBox="0 0 20 20" version="1.1" xmlns="http://www.w3.org/2000/svg" xmlns:xlink="http://www.w3.org/1999/xlink">
    <title>2849835_phone_telephone_cell_call_communication_icon</title>
    <g id="final" stroke="none" stroke-width="1" fill="none" fill-rule="evenodd">
        <g id="profile" transform="translate(-111.000000, -236.000000)" fill="#000000" fill-rule="nonzero">
            <g id="2849835_phone_telephone_cell_call_communication_icon" transform="translate(111.000000, 236.000000)">
                <path d="M14.626799,19.9533499 C13.8504681,19.9475913 13.0775355,19.8501419 12.3240695,19.6630273 C9.72208437,19.0352357 7.0426799,17.4426799 4.78064516,15.17866 C2.51861042,12.9146402 0.924069479,10.2347395 0.296277916,7.63523573 C-0.364764268,4.90074442 0.106699752,2.56129032 1.62233251,1.04565757 L2.05508685,0.612903226 C2.87261838,-0.202992067 4.19636425,-0.202992067 5.01389578,0.612903226 L7.50074442,3.09925558 C8.31718645,3.91656089 8.31718645,5.24075921 7.50074442,6.05806452 L6.03176179,7.52655087 C6.73598015,8.76228288 7.69379653,9.99900744 8.82580645,11.1310174 C9.95781638,12.2630273 11.1955335,13.22134 12.4307692,13.9255583 L13.8992556,12.4565757 C14.2915683,12.0641195 14.8237446,11.8436278 15.37866,11.8436278 C15.9335755,11.8436278 16.4657518,12.0641195 16.8580645,12.4565757 L19.3444169,14.942928 C20.1610758,15.7599498 20.1610758,17.084219 19.3444169,17.9012407 L18.9111663,18.333995 C17.8426799,19.4044665 16.3637717,19.9533499 14.626799,19.9533499 Z M3.53449132,1.48882641 C3.3744212,1.48803964 3.22077065,1.55171786 3.10818859,1.66550868 L2.67493797,2.09826303 C1.53995037,3.23325062 1.20843672,5.07593052 1.74143921,7.28387097 C2.3057072,9.62282878 3.75831266,12.0531017 5.83126551,14.1255583 C7.90421836,16.1980149 10.333995,17.6491315 12.6734491,18.2153846 C14.8818859,18.7483871 16.7235732,18.4168734 17.8585608,17.2818859 L18.2913151,16.8491315 C18.5267603,16.6134991 18.5267603,16.2316621 18.2913151,15.9960298 L15.8054591,13.5096774 C15.5698267,13.2742323 15.1879897,13.2742323 14.9523573,13.5096774 L13.0908189,15.3712159 C12.861613,15.6005471 12.5103329,15.655146 12.2223325,15.5062035 C10.6962779,14.7171216 9.15781638,13.5682382 7.77320099,12.1836228 C6.38858561,10.7990074 5.24218362,9.26153846 4.45111663,7.73548387 C4.30204759,7.44758807 4.35644377,7.0963212 4.58560794,6.86699752 L6.44764268,5.00545906 C6.6830878,4.76982668 6.6830878,4.38798969 6.44764268,4.15235732 L3.96129032,1.66550868 C3.84836555,1.55192545 3.69465644,1.48829703 3.53449132,1.48882641 Z" id="Shape"></path>
            </g>
        </g>
    </g>
</svg>