<?xml version="1.0" encoding="UTF-8"?>
<svg width="20px" height="20px" viewBox="0 0 20 20" version="1.1" xmlns="http://www.w3.org/2000/svg" xmlns:xlink="http://www.w3.org/1999/xlink">
    <title>Shape</title>
    <g id="final" stroke="none" stroke-width="1" fill="none" fill-rule="evenodd">
        <g id="make_your_choice_packages" transform="translate(-26.000000, -258.000000)" fill="#2E9F00" fill-rule="nonzero">
            <path d="M36,258 C30.4771525,258 26,262.477153 26,268 C26,273.522847 30.4771525,278 36,278 C41.5228475,278 46,273.522847 46,268 C46,265.347835 44.9464316,262.804296 43.0710678,260.928932 C41.195704,259.053568 38.6521649,258 36,258 Z M40.71,265.71 L35.71,270.71 C35.5222334,270.899313 35.2666375,271.005798 35,271.005798 C34.7333625,271.005798 34.4777666,270.899313 34.29,270.71 L32.29,268.71 C31.8978778,268.317878 31.8978778,267.682122 32.29,267.29 C32.6821222,266.897878 33.3178778,266.897878 33.71,267.29 L35,268.59 L39.29,264.29 C39.6821222,263.897878 40.3178778,263.897878 40.71,264.29 C41.1021222,264.682122 41.1021222,265.317878 40.71,265.71 L40.71,265.71 Z" id="Shape"></path>
        </g>
    </g>
</svg>