<?xml version="1.0" encoding="UTF-8"?>
<svg width="20px" height="20px" viewBox="0 0 20 20" version="1.1" xmlns="http://www.w3.org/2000/svg" xmlns:xlink="http://www.w3.org/1999/xlink">
    <title>Shape</title>
    <g id="final" stroke="none" stroke-width="1" fill="none" fill-rule="evenodd">
        <g id="summary" transform="translate(-35.000000, -1524.000000)" fill="#2E9F00" fill-rule="nonzero">
            <g id="351988_membership_wallet_icon" transform="translate(33.000000, 1522.000000)">
                <path d="M20,2 L4,2 C2.895,2 2,2.895 2,4 L2,15 C2,16.105 2.895,17 4,17 L8,17 L8,22 L12,20 L16,22 L16,17 L20,17 C21.105,17 22,16.105 22,15 L22,4 C22,2.895 21.105,2 20,2 Z M20,15 L4,15 L4,13 L20,13 L20,15 Z M20,10 L4,10 L4,4 L20,4 L20,10 Z" id="Shape"></path>
            </g>
        </g>
    </g>
</svg>