<?xml version="1.0" encoding="UTF-8"?>
<svg width="41px" height="41px" viewBox="0 0 41 41" version="1.1" xmlns="http://www.w3.org/2000/svg" xmlns:xlink="http://www.w3.org/1999/xlink">
    <title>5296520_bubble_chat_mobile_whatsapp_whatsapp logo_icon</title>
    <defs>
        <linearGradient x1="50%" y1="100%" x2="50%" y2="0.000195312119%" id="linearGradient-1">
            <stop stop-color="#25CF43" offset="0%"></stop>
            <stop stop-color="#61FD7D" offset="100%"></stop>
        </linearGradient>
    </defs>
    <g id="final" stroke="none" stroke-width="1" fill="none" fill-rule="evenodd">
        <g id="Home_screen" transform="translate(-331.000000, -475.000000)">
            <g id="5296520_bubble_chat_mobile_whatsapp_whatsapp-logo_icon" transform="translate(331.000000, 475.000000)">
                <path d="M9.307,0 C8.405,0.0409999199 7.216,0.12299976 6.683,0.24599952 C5.863,0.409999199 5.084,0.655998719 4.469,0.983998078 C3.69,1.35299736 3.034,1.8449964 2.46,2.41899528 C1.845,3.03399407 1.353,3.68999279 0.984,4.46899127 C0.656,5.08399007 0.41,5.86298855 0.246,6.68298695 C0.123,7.21598591 0.041,8.40498358 0.041,9.30698182 C0,9.6759811 0,10.1679801 0,10.4139797 L0,30.5860203 L0,31.6930182 C0.041,32.5950164 0.123,33.7840141 0.246,34.3170131 C0.41,35.1370115 0.656,35.9160099 0.984,36.5310087 C1.353,37.3100072 1.845,37.9660059 2.419,38.5400048 C3.034,39.1550036 3.69,39.6470026 4.469,40.0160019 C5.084,40.3440013 5.863,40.5900008 6.683,40.7540005 C7.216,40.8770002 8.405,40.9590001 9.307,40.9590001 C9.676,41 10.168,41 10.414,41 L30.586,41 L31.693,41 C32.595,40.9590001 33.784,40.8770002 34.317,40.7540005 C35.137,40.5900008 35.916,40.3440013 36.531,40.0160019 C37.31,39.6470026 37.966,39.1550036 38.54,38.5810047 C39.155,37.9660059 39.647,37.3100072 40.016,36.5310087 C40.344,35.9160099 40.59,35.1370115 40.754,34.3170131 C40.877,33.7840141 40.959,32.5950164 40.959,31.6930182 C41,31.3240189 41,30.8320199 41,30.5860203 L41,9.30698182 C40.959,8.40498358 40.877,7.21598591 40.754,6.68298695 C40.59,5.86298855 40.344,5.08399007 40.016,4.46899127 C39.647,3.68999279 39.155,3.03399407 38.581,2.4599952 C37.966,1.8449964 37.31,1.35299736 36.531,0.983998078 C35.916,0.655998719 35.137,0.409999199 34.317,0.24599952 C33.784,0.12299976 32.595,0.0409999199 31.693,0.0409999199 C31.324,0 30.832,0 30.586,0 L9.307,0 Z" id="Path" fill="url(#linearGradient-1)" fill-rule="nonzero"></path>
                <path d="M27.1437079,23.3784662 C26.7829356,23.1987295 25.0091386,22.3300543 24.6783516,22.210256 C24.3476437,22.0904577 24.1072079,22.0305192 23.8666931,22.3899928 C23.6260991,22.7494663 22.934698,23.558203 22.7242475,23.7978783 C22.513797,24.0374748 22.3033465,24.0674834 21.9425743,23.8876679 C21.5817229,23.7080099 20.4192608,23.3288457 19.0412057,22.1055014 C17.9686993,21.1534952 17.2445439,19.9775662 17.0340934,19.6180926 C16.8236429,19.2586191 17.0117034,19.0643112 17.1923269,18.8852833 C17.3545953,18.7245284 17.5530992,18.46595 17.7334853,18.2562834 C17.9138714,18.0466167 17.9740001,17.8968098 18.0942576,17.6572133 C18.214515,17.4176168 18.1543863,17.2078714 18.0641932,17.0281346 C17.9740001,16.8483979 17.2524556,15.0811176 16.951812,14.3621705 C16.659001,13.6620477 16.3615221,13.7567994 16.1400744,13.7457726 C15.9298613,13.7353759 15.6891091,13.7331706 15.4485942,13.7331706 C15.2080003,13.7331706 14.8172427,13.8230389 14.4864557,14.1824337 C14.1557478,14.5419073 13.2237527,15.4106612 13.2237527,17.1779415 C13.2237527,18.9452218 14.5165201,20.6526424 14.6969062,20.8923176 C14.8773715,21.1319929 17.2410628,24.758706 20.8602575,26.3140355 C21.7210474,26.6839845 22.3930649,26.9048355 22.917055,27.070395 C23.7813261,27.3436232 24.5679046,27.3051082 25.1895247,27.2126406 C25.8826664,27.1095401 27.324094,26.3439654 27.6248167,25.5052988 C27.9253812,24.6665535 27.9253812,23.9476064 27.8351881,23.7978783 C27.7450741,23.6480714 27.5045593,23.558203 27.1437079,23.3784662 M20.5606424,32.3237967 L20.5558163,32.3237967 C18.402259,32.3229303 16.2900797,31.7472528 14.4474512,30.6589868 L14.0092236,30.4000934 L9.46689497,31.5859465 L10.6793588,27.1784576 L10.3939057,26.726674 C9.19259728,24.8249455 8.55816025,22.6269901 8.55902964,20.3701989 C8.56164138,13.7847602 13.9455346,8.42699772 20.5654685,8.42699772 C23.7710409,8.42825793 26.7842806,9.67231677 29.0501837,11.9298957 C31.3160867,14.1874745 32.5632828,17.188417 32.5620969,20.3798079 C32.559327,26.9657192 27.1755919,32.3237967 20.5606424,32.3237967 M30.7747701,10.2143625 C28.048645,7.49814772 24.4232001,6.00157526 20.5605633,6 C12.6018162,6 6.12429238,12.4460285 6.12112771,20.3692537 C6.12009919,22.9019511 6.78491705,25.3743163 8.04849029,27.5533686 L6,35 L13.6545433,33.0017871 C15.7635579,34.1466048 18.1380882,34.7498493 20.5547878,34.7508732 L20.5607215,34.7508732 C28.5187566,34.7508732 34.9967551,28.3039783 35,20.3807531 C35.0015021,16.5409865 33.5010534,12.9305774 30.7747701,10.2143625" id="Shape" fill="#FFFFFF"></path>
            </g>
        </g>
    </g>
</svg>